# xmcd
#
# Track frame offsets: 
#        150
#        17874
#        43589
#        61941
#        73752
#        91672
#        109648
#        135155
#        157505
#        176317
#        191186
#        220071
#        236793
#        251979
#        279951
#        298227
#
# Disc length: 4337 seconds
#
# Revision: 0
# Processed by: cddbd v1.5PL3 Copyright (c) Steve Scherf et al.
# Submitted via: ExactAudioCopy v0.95a3
#
DISCID=dd10ef10
DTITLE=James Leary - Blues Bass-Ed
DYEAR=2002
DGENRE=Blues
TTITLE0=Blues Bassed
TTITLE1=Love Can Be Many Things
TTITLE2=Little Joe G
TTITLE3=Come And Talk
TTITLE4=Remember To Smile
TTITLE5=Waltz For Monday
TTITLE6=Endless
TTITLE7=She's So Sweet
TTITLE8=It Used To Be Sorta Somber
TTITLE9=Free Flow
TTITLE10=Together
TTITLE11=Song For My Mother
TTITLE12=Convergence
TTITLE13=Little Birds
TTITLE14=Leargacy
TTITLE15=Expose
EXTD=
EXTT0=
EXTT1=
EXTT2=
EXTT3=
EXTT4=
EXTT5=
EXTT6=
EXTT7=
EXTT8=
EXTT9=
EXTT10=
EXTT11=
EXTT12=
EXTT13=
EXTT14=
EXTT15=
PLAYORDER=
